<svg xmlns="http://www.w3.org/2000/svg" width="1200" height="430" viewBox="0 0 1200 430" role="img" aria-label="LANGUAGE SPECTRUM">
  <defs>
    <linearGradient id="paper" x1="0" x2="1" y1="0" y2="1">
      <stop offset="0%" stop-color="#ffffff"/>
      <stop offset="100%" stop-color="#f5f3ed"/>
    </linearGradient>
    <filter id="softShadow" x="-20%" y="-20%" width="140%" height="140%">
      <feDropShadow dx="0" dy="10" stdDeviation="14" flood-color="#000000" flood-opacity="0.09"/>
    </filter>
  </defs>
  <rect width="1200" height="430" rx="0" fill="url(#paper)"/>
  <rect x="24" y="24" width="1152" height="382" rx="18" fill="none" stroke="#dad7cf"/>
  <text x="48" y="64" fill="#111111" font-family="Inter, ui-sans-serif, system-ui, -apple-system, BlinkMacSystemFont, Segoe UI, sans-serif" font-size="23" font-weight="650">LANGUAGE SPECTRUM</text>
  <text x="48" y="91" fill="#696969" font-family="Inter, ui-sans-serif, system-ui, -apple-system, BlinkMacSystemFont, Segoe UI, sans-serif" font-size="13" letter-spacing="1.8">AGGREGATED LANGUAGE BYTES FROM ACCESSIBLE REPOSITORIES</text>
  <g transform="translate(78 116)">
      <text x="0" y="15" fill="#111111" font-size="13" font-weight="650" font-family="Inter, ui-sans-serif">TypeScript</text>
      <rect x="210" y="2" width="790" height="16" rx="8" fill="#eeeae1"/>
      <rect x="210" y="2" width="680.3" height="16" rx="8" fill="#111111"/>
      <text x="1025" y="15" fill="#696969" font-size="12" font-family="Inter, ui-sans-serif" text-anchor="end">86.1%</text>
    </g><g transform="translate(78 143)">
      <text x="0" y="15" fill="#111111" font-size="13" font-weight="650" font-family="Inter, ui-sans-serif">Python</text>
      <rect x="210" y="2" width="790" height="16" rx="8" fill="#eeeae1"/>
      <rect x="210" y="2" width="62.4" height="16" rx="8" fill="#557c83"/>
      <text x="1025" y="15" fill="#696969" font-size="12" font-family="Inter, ui-sans-serif" text-anchor="end">7.9%</text>
    </g><g transform="translate(78 170)">
      <text x="0" y="15" fill="#111111" font-size="13" font-weight="650" font-family="Inter, ui-sans-serif">JavaScript</text>
      <rect x="210" y="2" width="790" height="16" rx="8" fill="#eeeae1"/>
      <rect x="210" y="2" width="17.0" height="16" rx="8" fill="#b9a77b"/>
      <text x="1025" y="15" fill="#696969" font-size="12" font-family="Inter, ui-sans-serif" text-anchor="end">2.2%</text>
    </g><g transform="translate(78 197)">
      <text x="0" y="15" fill="#111111" font-size="13" font-weight="650" font-family="Inter, ui-sans-serif">CSS</text>
      <rect x="210" y="2" width="790" height="16" rx="8" fill="#eeeae1"/>
      <rect x="210" y="2" width="13.1" height="16" rx="8" fill="#496b9c"/>
      <text x="1025" y="15" fill="#696969" font-size="12" font-family="Inter, ui-sans-serif" text-anchor="end">1.7%</text>
    </g><g transform="translate(78 224)">
      <text x="0" y="15" fill="#111111" font-size="13" font-weight="650" font-family="Inter, ui-sans-serif">HTML</text>
      <rect x="210" y="2" width="790" height="16" rx="8" fill="#eeeae1"/>
      <rect x="210" y="2" width="6.8" height="16" rx="8" fill="#6f8f72"/>
      <text x="1025" y="15" fill="#696969" font-size="12" font-family="Inter, ui-sans-serif" text-anchor="end">0.9%</text>
    </g><g transform="translate(78 251)">
      <text x="0" y="15" fill="#111111" font-size="13" font-weight="650" font-family="Inter, ui-sans-serif">Jupyter Notebook</text>
      <rect x="210" y="2" width="790" height="16" rx="8" fill="#eeeae1"/>
      <rect x="210" y="2" width="6.7" height="16" rx="8" fill="#b56d72"/>
      <text x="1025" y="15" fill="#696969" font-size="12" font-family="Inter, ui-sans-serif" text-anchor="end">0.8%</text>
    </g><g transform="translate(78 278)">
      <text x="0" y="15" fill="#111111" font-size="13" font-weight="650" font-family="Inter, ui-sans-serif">Shell</text>
      <rect x="210" y="2" width="790" height="16" rx="8" fill="#eeeae1"/>
      <rect x="210" y="2" width="6.0" height="16" rx="8" fill="#8f8a83"/>
      <text x="1025" y="15" fill="#696969" font-size="12" font-family="Inter, ui-sans-serif" text-anchor="end">0.2%</text>
    </g><g transform="translate(78 305)">
      <text x="0" y="15" fill="#111111" font-size="13" font-weight="650" font-family="Inter, ui-sans-serif">Swift</text>
      <rect x="210" y="2" width="790" height="16" rx="8" fill="#eeeae1"/>
      <rect x="210" y="2" width="6.0" height="16" rx="8" fill="#c2b48d"/>
      <text x="1025" y="15" fill="#696969" font-size="12" font-family="Inter, ui-sans-serif" text-anchor="end">0.1%</text>
    </g><g transform="translate(78 332)">
      <text x="0" y="15" fill="#111111" font-size="13" font-weight="650" font-family="Inter, ui-sans-serif">PLpgSQL</text>
      <rect x="210" y="2" width="790" height="16" rx="8" fill="#eeeae1"/>
      <rect x="210" y="2" width="6.0" height="16" rx="8" fill="#9a9a9a"/>
      <text x="1025" y="15" fill="#696969" font-size="12" font-family="Inter, ui-sans-serif" text-anchor="end">0.1%</text>
    </g><g transform="translate(78 359)">
      <text x="0" y="15" fill="#111111" font-size="13" font-weight="650" font-family="Inter, ui-sans-serif">TeX</text>
      <rect x="210" y="2" width="790" height="16" rx="8" fill="#eeeae1"/>
      <rect x="210" y="2" width="6.0" height="16" rx="8" fill="#6d756e"/>
      <text x="1025" y="15" fill="#696969" font-size="12" font-family="Inter, ui-sans-serif" text-anchor="end">0.0%</text>
    </g>
</svg>