<svg xmlns="http://www.w3.org/2000/svg" width="1200" height="420" viewBox="0 0 1200 420" role="img" aria-label="WORK RHYTHM">
  <defs>
    <linearGradient id="paper" x1="0" x2="1" y1="0" y2="1">
      <stop offset="0%" stop-color="#ffffff"/>
      <stop offset="100%" stop-color="#f5f3ed"/>
    </linearGradient>
    <filter id="softShadow" x="-20%" y="-20%" width="140%" height="140%">
      <feDropShadow dx="0" dy="10" stdDeviation="14" flood-color="#000000" flood-opacity="0.09"/>
    </filter>
  </defs>
  <rect width="1200" height="420" rx="0" fill="url(#paper)"/>
  <rect x="24" y="24" width="1152" height="372" rx="18" fill="none" stroke="#dad7cf"/>
  <text x="48" y="64" fill="#111111" font-family="Inter, ui-sans-serif, system-ui, -apple-system, BlinkMacSystemFont, Segoe UI, sans-serif" font-size="23" font-weight="650">WORK RHYTHM</text>
  <text x="48" y="91" fill="#696969" font-family="Inter, ui-sans-serif, system-ui, -apple-system, BlinkMacSystemFont, Segoe UI, sans-serif" font-size="13" letter-spacing="1.8">COMMIT TIME DISTRIBUTION FROM ACCESSIBLE REPOSITORIES, Asia/Shanghai</text>
  <text x="62" y="138" fill="#696969" font-size="12" font-family="Inter, ui-sans-serif">Sun</text><text x="62" y="174" fill="#696969" font-size="12" font-family="Inter, ui-sans-serif">Mon</text><text x="62" y="210" fill="#696969" font-size="12" font-family="Inter, ui-sans-serif">Tue</text><text x="62" y="246" fill="#696969" font-size="12" font-family="Inter, ui-sans-serif">Wed</text><text x="62" y="282" fill="#696969" font-size="12" font-family="Inter, ui-sans-serif">Thu</text><text x="62" y="318" fill="#696969" font-size="12" font-family="Inter, ui-sans-serif">Fri</text><text x="62" y="354" fill="#696969" font-size="12" font-family="Inter, ui-sans-serif">Sat</text><text x="102" y="108" fill="#696969" font-size="11" font-family="Inter, ui-sans-serif">00</text><text x="228" y="108" fill="#696969" font-size="11" font-family="Inter, ui-sans-serif">03</text><text x="354" y="108" fill="#696969" font-size="11" font-family="Inter, ui-sans-serif">06</text><text x="480" y="108" fill="#696969" font-size="11" font-family="Inter, ui-sans-serif">09</text><text x="606" y="108" fill="#696969" font-size="11" font-family="Inter, ui-sans-serif">12</text><text x="732" y="108" fill="#696969" font-size="11" font-family="Inter, ui-sans-serif">15</text><text x="858" y="108" fill="#696969" font-size="11" font-family="Inter, ui-sans-serif">18</text><text x="984" y="108" fill="#696969" font-size="11" font-family="Inter, ui-sans-serif">21</text><rect x="102" y="118" width="38" height="31" rx="6" fill="#111111" opacity="0.10"><title>Sun 00:00 Asia/Shanghai: 0</title></rect><rect x="144" y="118" width="38" height="31" rx="6" fill="#111111" opacity="0.10"><title>Sun 01:00 Asia/Shanghai: 0</title></rect><rect x="186" y="118" width="38" height="31" rx="6" fill="#111111" opacity="0.10"><title>Sun 02:00 Asia/Shanghai: 0</title></rect><rect x="228" y="118" width="38" height="31" rx="6" fill="#111111" opacity="0.10"><title>Sun 03:00 Asia/Shanghai: 0</title></rect><rect x="270" y="118" width="38" height="31" rx="6" fill="#111111" opacity="0.10"><title>Sun 04:00 Asia/Shanghai: 0</title></rect><rect x="312" y="118" width="38" height="31" rx="6" fill="#111111" opacity="0.10"><title>Sun 05:00 Asia/Shanghai: 0</title></rect><rect x="354" y="118" width="38" height="31" rx="6" fill="#111111" opacity="0.10"><title>Sun 06:00 Asia/Shanghai: 0</title></rect><rect x="396" y="118" width="38" height="31" rx="6" fill="#111111" opacity="0.10"><title>Sun 07:00 Asia/Shanghai: 0</title></rect><rect x="438" y="118" width="38" height="31" rx="6" fill="#111111" opacity="0.14"><title>Sun 08:00 Asia/Shanghai: 1</title></rect><rect x="480" y="118" width="38" height="31" rx="6" fill="#111111" opacity="0.14"><title>Sun 09:00 Asia/Shanghai: 1</title></rect><rect x="522" y="118" width="38" height="31" rx="6" fill="#111111" opacity="0.19"><title>Sun 10:00 Asia/Shanghai: 2</title></rect><rect x="564" y="118" width="38" height="31" rx="6" fill="#111111" opacity="0.70"><title>Sun 11:00 Asia/Shanghai: 14</title></rect><rect x="606" y="118" width="38" height="31" rx="6" fill="#111111" opacity="0.70"><title>Sun 12:00 Asia/Shanghai: 14</title></rect><rect x="648" y="118" width="38" height="31" rx="6" fill="#111111" opacity="0.79"><title>Sun 13:00 Asia/Shanghai: 16</title></rect><rect x="690" y="118" width="38" height="31" rx="6" fill="#111111" opacity="0.14"><title>Sun 14:00 Asia/Shanghai: 1</title></rect><rect x="732" y="118" width="38" height="31" rx="6" fill="#111111" opacity="0.14"><title>Sun 15:00 Asia/Shanghai: 1</title></rect><rect x="774" y="118" width="38" height="31" rx="6" fill="#111111" opacity="0.19"><title>Sun 16:00 Asia/Shanghai: 2</title></rect><rect x="816" y="118" width="38" height="31" rx="6" fill="#111111" opacity="0.36"><title>Sun 17:00 Asia/Shanghai: 6</title></rect><rect x="858" y="118" width="38" height="31" rx="6" fill="#111111" opacity="0.14"><title>Sun 18:00 Asia/Shanghai: 1</title></rect><rect x="900" y="118" width="38" height="31" rx="6" fill="#111111" opacity="0.14"><title>Sun 19:00 Asia/Shanghai: 1</title></rect><rect x="942" y="118" width="38" height="31" rx="6" fill="#111111" opacity="0.10"><title>Sun 20:00 Asia/Shanghai: 0</title></rect><rect x="984" y="118" width="38" height="31" rx="6" fill="#111111" opacity="0.23"><title>Sun 21:00 Asia/Shanghai: 3</title></rect><rect x="1026" y="118" width="38" height="31" rx="6" fill="#111111" opacity="0.10"><title>Sun 22:00 Asia/Shanghai: 0</title></rect><rect x="1068" y="118" width="38" height="31" rx="6" fill="#111111" opacity="0.10"><title>Sun 23:00 Asia/Shanghai: 0</title></rect><rect x="102" y="154" width="38" height="31" rx="6" fill="#111111" opacity="0.19"><title>Mon 00:00 Asia/Shanghai: 2</title></rect><rect x="144" y="154" width="38" height="31" rx="6" fill="#111111" opacity="0.10"><title>Mon 01:00 Asia/Shanghai: 0</title></rect><rect x="186" y="154" width="38" height="31" rx="6" fill="#111111" opacity="0.10"><title>Mon 02:00 Asia/Shanghai: 0</title></rect><rect x="228" y="154" width="38" height="31" rx="6" fill="#111111" opacity="0.10"><title>Mon 03:00 Asia/Shanghai: 0</title></rect><rect x="270" y="154" width="38" height="31" rx="6" fill="#111111" opacity="0.10"><title>Mon 04:00 Asia/Shanghai: 0</title></rect><rect x="312" y="154" width="38" height="31" rx="6" fill="#111111" opacity="0.10"><title>Mon 05:00 Asia/Shanghai: 0</title></rect><rect x="354" y="154" width="38" height="31" rx="6" fill="#111111" opacity="0.10"><title>Mon 06:00 Asia/Shanghai: 0</title></rect><rect x="396" y="154" width="38" height="31" rx="6" fill="#111111" opacity="0.10"><title>Mon 07:00 Asia/Shanghai: 0</title></rect><rect x="438" y="154" width="38" height="31" rx="6" fill="#111111" opacity="0.10"><title>Mon 08:00 Asia/Shanghai: 0</title></rect><rect x="480" y="154" width="38" height="31" rx="6" fill="#111111" opacity="0.10"><title>Mon 09:00 Asia/Shanghai: 0</title></rect><rect x="522" y="154" width="38" height="31" rx="6" fill="#111111" opacity="0.27"><title>Mon 10:00 Asia/Shanghai: 4</title></rect><rect x="564" y="154" width="38" height="31" rx="6" fill="#111111" opacity="0.27"><title>Mon 11:00 Asia/Shanghai: 4</title></rect><rect x="606" y="154" width="38" height="31" rx="6" fill="#111111" opacity="0.40"><title>Mon 12:00 Asia/Shanghai: 7</title></rect><rect x="648" y="154" width="38" height="31" rx="6" fill="#111111" opacity="0.27"><title>Mon 13:00 Asia/Shanghai: 4</title></rect><rect x="690" y="154" width="38" height="31" rx="6" fill="#111111" opacity="0.53"><title>Mon 14:00 Asia/Shanghai: 10</title></rect><rect x="732" y="154" width="38" height="31" rx="6" fill="#111111" opacity="0.36"><title>Mon 15:00 Asia/Shanghai: 6</title></rect><rect x="774" y="154" width="38" height="31" rx="6" fill="#111111" opacity="0.40"><title>Mon 16:00 Asia/Shanghai: 7</title></rect><rect x="816" y="154" width="38" height="31" rx="6" fill="#111111" opacity="0.23"><title>Mon 17:00 Asia/Shanghai: 3</title></rect><rect x="858" y="154" width="38" height="31" rx="6" fill="#111111" opacity="0.36"><title>Mon 18:00 Asia/Shanghai: 6</title></rect><rect x="900" y="154" width="38" height="31" rx="6" fill="#111111" opacity="0.53"><title>Mon 19:00 Asia/Shanghai: 10</title></rect><rect x="942" y="154" width="38" height="31" rx="6" fill="#111111" opacity="1.00"><title>Mon 20:00 Asia/Shanghai: 21</title></rect><rect x="984" y="154" width="38" height="31" rx="6" fill="#111111" opacity="0.70"><title>Mon 21:00 Asia/Shanghai: 14</title></rect><rect x="1026" y="154" width="38" height="31" rx="6" fill="#111111" opacity="0.19"><title>Mon 22:00 Asia/Shanghai: 2</title></rect><rect x="1068" y="154" width="38" height="31" rx="6" fill="#111111" opacity="0.19"><title>Mon 23:00 Asia/Shanghai: 2</title></rect><rect x="102" y="190" width="38" height="31" rx="6" fill="#111111" opacity="0.10"><title>Tue 00:00 Asia/Shanghai: 0</title></rect><rect x="144" y="190" width="38" height="31" rx="6" fill="#111111" opacity="0.10"><title>Tue 01:00 Asia/Shanghai: 0</title></rect><rect x="186" y="190" width="38" height="31" rx="6" fill="#111111" opacity="0.10"><title>Tue 02:00 Asia/Shanghai: 0</title></rect><rect x="228" y="190" width="38" height="31" rx="6" fill="#111111" opacity="0.10"><title>Tue 03:00 Asia/Shanghai: 0</title></rect><rect x="270" y="190" width="38" height="31" rx="6" fill="#111111" opacity="0.10"><title>Tue 04:00 Asia/Shanghai: 0</title></rect><rect x="312" y="190" width="38" height="31" rx="6" fill="#111111" opacity="0.10"><title>Tue 05:00 Asia/Shanghai: 0</title></rect><rect x="354" y="190" width="38" height="31" rx="6" fill="#111111" opacity="0.10"><title>Tue 06:00 Asia/Shanghai: 0</title></rect><rect x="396" y="190" width="38" height="31" rx="6" fill="#111111" opacity="0.10"><title>Tue 07:00 Asia/Shanghai: 0</title></rect><rect x="438" y="190" width="38" height="31" rx="6" fill="#111111" opacity="0.10"><title>Tue 08:00 Asia/Shanghai: 0</title></rect><rect x="480" y="190" width="38" height="31" rx="6" fill="#111111" opacity="0.10"><title>Tue 09:00 Asia/Shanghai: 0</title></rect><rect x="522" y="190" width="38" height="31" rx="6" fill="#111111" opacity="0.96"><title>Tue 10:00 Asia/Shanghai: 20</title></rect><rect x="564" y="190" width="38" height="31" rx="6" fill="#111111" opacity="0.66"><title>Tue 11:00 Asia/Shanghai: 13</title></rect><rect x="606" y="190" width="38" height="31" rx="6" fill="#111111" opacity="0.36"><title>Tue 12:00 Asia/Shanghai: 6</title></rect><rect x="648" y="190" width="38" height="31" rx="6" fill="#111111" opacity="0.19"><title>Tue 13:00 Asia/Shanghai: 2</title></rect><rect x="690" y="190" width="38" height="31" rx="6" fill="#111111" opacity="0.70"><title>Tue 14:00 Asia/Shanghai: 14</title></rect><rect x="732" y="190" width="38" height="31" rx="6" fill="#111111" opacity="0.31"><title>Tue 15:00 Asia/Shanghai: 5</title></rect><rect x="774" y="190" width="38" height="31" rx="6" fill="#111111" opacity="0.57"><title>Tue 16:00 Asia/Shanghai: 11</title></rect><rect x="816" y="190" width="38" height="31" rx="6" fill="#111111" opacity="0.31"><title>Tue 17:00 Asia/Shanghai: 5</title></rect><rect x="858" y="190" width="38" height="31" rx="6" fill="#111111" opacity="0.23"><title>Tue 18:00 Asia/Shanghai: 3</title></rect><rect x="900" y="190" width="38" height="31" rx="6" fill="#111111" opacity="0.27"><title>Tue 19:00 Asia/Shanghai: 4</title></rect><rect x="942" y="190" width="38" height="31" rx="6" fill="#111111" opacity="0.23"><title>Tue 20:00 Asia/Shanghai: 3</title></rect><rect x="984" y="190" width="38" height="31" rx="6" fill="#111111" opacity="0.36"><title>Tue 21:00 Asia/Shanghai: 6</title></rect><rect x="1026" y="190" width="38" height="31" rx="6" fill="#111111" opacity="0.61"><title>Tue 22:00 Asia/Shanghai: 12</title></rect><rect x="1068" y="190" width="38" height="31" rx="6" fill="#111111" opacity="0.27"><title>Tue 23:00 Asia/Shanghai: 4</title></rect><rect x="102" y="226" width="38" height="31" rx="6" fill="#111111" opacity="0.44"><title>Wed 00:00 Asia/Shanghai: 8</title></rect><rect x="144" y="226" width="38" height="31" rx="6" fill="#111111" opacity="0.23"><title>Wed 01:00 Asia/Shanghai: 3</title></rect><rect x="186" y="226" width="38" height="31" rx="6" fill="#111111" opacity="0.10"><title>Wed 02:00 Asia/Shanghai: 0</title></rect><rect x="228" y="226" width="38" height="31" rx="6" fill="#111111" opacity="0.10"><title>Wed 03:00 Asia/Shanghai: 0</title></rect><rect x="270" y="226" width="38" height="31" rx="6" fill="#111111" opacity="0.10"><title>Wed 04:00 Asia/Shanghai: 0</title></rect><rect x="312" y="226" width="38" height="31" rx="6" fill="#111111" opacity="0.10"><title>Wed 05:00 Asia/Shanghai: 0</title></rect><rect x="354" y="226" width="38" height="31" rx="6" fill="#111111" opacity="0.10"><title>Wed 06:00 Asia/Shanghai: 0</title></rect><rect x="396" y="226" width="38" height="31" rx="6" fill="#111111" opacity="0.14"><title>Wed 07:00 Asia/Shanghai: 1</title></rect><rect x="438" y="226" width="38" height="31" rx="6" fill="#111111" opacity="0.10"><title>Wed 08:00 Asia/Shanghai: 0</title></rect><rect x="480" y="226" width="38" height="31" rx="6" fill="#111111" opacity="0.10"><title>Wed 09:00 Asia/Shanghai: 0</title></rect><rect x="522" y="226" width="38" height="31" rx="6" fill="#111111" opacity="0.66"><title>Wed 10:00 Asia/Shanghai: 13</title></rect><rect x="564" y="226" width="38" height="31" rx="6" fill="#111111" opacity="0.40"><title>Wed 11:00 Asia/Shanghai: 7</title></rect><rect x="606" y="226" width="38" height="31" rx="6" fill="#111111" opacity="0.57"><title>Wed 12:00 Asia/Shanghai: 11</title></rect><rect x="648" y="226" width="38" height="31" rx="6" fill="#111111" opacity="0.14"><title>Wed 13:00 Asia/Shanghai: 1</title></rect><rect x="690" y="226" width="38" height="31" rx="6" fill="#111111" opacity="0.27"><title>Wed 14:00 Asia/Shanghai: 4</title></rect><rect x="732" y="226" width="38" height="31" rx="6" fill="#111111" opacity="0.31"><title>Wed 15:00 Asia/Shanghai: 5</title></rect><rect x="774" y="226" width="38" height="31" rx="6" fill="#111111" opacity="0.36"><title>Wed 16:00 Asia/Shanghai: 6</title></rect><rect x="816" y="226" width="38" height="31" rx="6" fill="#111111" opacity="0.53"><title>Wed 17:00 Asia/Shanghai: 10</title></rect><rect x="858" y="226" width="38" height="31" rx="6" fill="#111111" opacity="0.49"><title>Wed 18:00 Asia/Shanghai: 9</title></rect><rect x="900" y="226" width="38" height="31" rx="6" fill="#111111" opacity="0.14"><title>Wed 19:00 Asia/Shanghai: 1</title></rect><rect x="942" y="226" width="38" height="31" rx="6" fill="#111111" opacity="0.10"><title>Wed 20:00 Asia/Shanghai: 0</title></rect><rect x="984" y="226" width="38" height="31" rx="6" fill="#111111" opacity="0.14"><title>Wed 21:00 Asia/Shanghai: 1</title></rect><rect x="1026" y="226" width="38" height="31" rx="6" fill="#111111" opacity="0.40"><title>Wed 22:00 Asia/Shanghai: 7</title></rect><rect x="1068" y="226" width="38" height="31" rx="6" fill="#111111" opacity="0.23"><title>Wed 23:00 Asia/Shanghai: 3</title></rect><rect x="102" y="262" width="38" height="31" rx="6" fill="#111111" opacity="0.27"><title>Thu 00:00 Asia/Shanghai: 4</title></rect><rect x="144" y="262" width="38" height="31" rx="6" fill="#111111" opacity="0.10"><title>Thu 01:00 Asia/Shanghai: 0</title></rect><rect x="186" y="262" width="38" height="31" rx="6" fill="#111111" opacity="0.10"><title>Thu 02:00 Asia/Shanghai: 0</title></rect><rect x="228" y="262" width="38" height="31" rx="6" fill="#111111" opacity="0.10"><title>Thu 03:00 Asia/Shanghai: 0</title></rect><rect x="270" y="262" width="38" height="31" rx="6" fill="#111111" opacity="0.31"><title>Thu 04:00 Asia/Shanghai: 5</title></rect><rect x="312" y="262" width="38" height="31" rx="6" fill="#111111" opacity="0.10"><title>Thu 05:00 Asia/Shanghai: 0</title></rect><rect x="354" y="262" width="38" height="31" rx="6" fill="#111111" opacity="0.14"><title>Thu 06:00 Asia/Shanghai: 1</title></rect><rect x="396" y="262" width="38" height="31" rx="6" fill="#111111" opacity="0.10"><title>Thu 07:00 Asia/Shanghai: 0</title></rect><rect x="438" y="262" width="38" height="31" rx="6" fill="#111111" opacity="0.14"><title>Thu 08:00 Asia/Shanghai: 1</title></rect><rect x="480" y="262" width="38" height="31" rx="6" fill="#111111" opacity="0.10"><title>Thu 09:00 Asia/Shanghai: 0</title></rect><rect x="522" y="262" width="38" height="31" rx="6" fill="#111111" opacity="0.10"><title>Thu 10:00 Asia/Shanghai: 0</title></rect><rect x="564" y="262" width="38" height="31" rx="6" fill="#111111" opacity="0.27"><title>Thu 11:00 Asia/Shanghai: 4</title></rect><rect x="606" y="262" width="38" height="31" rx="6" fill="#111111" opacity="0.19"><title>Thu 12:00 Asia/Shanghai: 2</title></rect><rect x="648" y="262" width="38" height="31" rx="6" fill="#111111" opacity="0.27"><title>Thu 13:00 Asia/Shanghai: 4</title></rect><rect x="690" y="262" width="38" height="31" rx="6" fill="#111111" opacity="0.14"><title>Thu 14:00 Asia/Shanghai: 1</title></rect><rect x="732" y="262" width="38" height="31" rx="6" fill="#111111" opacity="0.10"><title>Thu 15:00 Asia/Shanghai: 0</title></rect><rect x="774" y="262" width="38" height="31" rx="6" fill="#111111" opacity="0.27"><title>Thu 16:00 Asia/Shanghai: 4</title></rect><rect x="816" y="262" width="38" height="31" rx="6" fill="#111111" opacity="0.14"><title>Thu 17:00 Asia/Shanghai: 1</title></rect><rect x="858" y="262" width="38" height="31" rx="6" fill="#111111" opacity="0.49"><title>Thu 18:00 Asia/Shanghai: 9</title></rect><rect x="900" y="262" width="38" height="31" rx="6" fill="#111111" opacity="0.23"><title>Thu 19:00 Asia/Shanghai: 3</title></rect><rect x="942" y="262" width="38" height="31" rx="6" fill="#111111" opacity="0.14"><title>Thu 20:00 Asia/Shanghai: 1</title></rect><rect x="984" y="262" width="38" height="31" rx="6" fill="#111111" opacity="0.10"><title>Thu 21:00 Asia/Shanghai: 0</title></rect><rect x="1026" y="262" width="38" height="31" rx="6" fill="#111111" opacity="0.31"><title>Thu 22:00 Asia/Shanghai: 5</title></rect><rect x="1068" y="262" width="38" height="31" rx="6" fill="#111111" opacity="0.57"><title>Thu 23:00 Asia/Shanghai: 11</title></rect><rect x="102" y="298" width="38" height="31" rx="6" fill="#111111" opacity="0.53"><title>Fri 00:00 Asia/Shanghai: 10</title></rect><rect x="144" y="298" width="38" height="31" rx="6" fill="#111111" opacity="0.10"><title>Fri 01:00 Asia/Shanghai: 0</title></rect><rect x="186" y="298" width="38" height="31" rx="6" fill="#111111" opacity="0.10"><title>Fri 02:00 Asia/Shanghai: 0</title></rect><rect x="228" y="298" width="38" height="31" rx="6" fill="#111111" opacity="0.10"><title>Fri 03:00 Asia/Shanghai: 0</title></rect><rect x="270" y="298" width="38" height="31" rx="6" fill="#111111" opacity="0.10"><title>Fri 04:00 Asia/Shanghai: 0</title></rect><rect x="312" y="298" width="38" height="31" rx="6" fill="#111111" opacity="0.10"><title>Fri 05:00 Asia/Shanghai: 0</title></rect><rect x="354" y="298" width="38" height="31" rx="6" fill="#111111" opacity="0.14"><title>Fri 06:00 Asia/Shanghai: 1</title></rect><rect x="396" y="298" width="38" height="31" rx="6" fill="#111111" opacity="0.10"><title>Fri 07:00 Asia/Shanghai: 0</title></rect><rect x="438" y="298" width="38" height="31" rx="6" fill="#111111" opacity="0.19"><title>Fri 08:00 Asia/Shanghai: 2</title></rect><rect x="480" y="298" width="38" height="31" rx="6" fill="#111111" opacity="0.23"><title>Fri 09:00 Asia/Shanghai: 3</title></rect><rect x="522" y="298" width="38" height="31" rx="6" fill="#111111" opacity="0.27"><title>Fri 10:00 Asia/Shanghai: 4</title></rect><rect x="564" y="298" width="38" height="31" rx="6" fill="#111111" opacity="0.19"><title>Fri 11:00 Asia/Shanghai: 2</title></rect><rect x="606" y="298" width="38" height="31" rx="6" fill="#111111" opacity="0.44"><title>Fri 12:00 Asia/Shanghai: 8</title></rect><rect x="648" y="298" width="38" height="31" rx="6" fill="#111111" opacity="0.31"><title>Fri 13:00 Asia/Shanghai: 5</title></rect><rect x="690" y="298" width="38" height="31" rx="6" fill="#111111" opacity="0.74"><title>Fri 14:00 Asia/Shanghai: 15</title></rect><rect x="732" y="298" width="38" height="31" rx="6" fill="#111111" opacity="0.57"><title>Fri 15:00 Asia/Shanghai: 11</title></rect><rect x="774" y="298" width="38" height="31" rx="6" fill="#111111" opacity="0.66"><title>Fri 16:00 Asia/Shanghai: 13</title></rect><rect x="816" y="298" width="38" height="31" rx="6" fill="#111111" opacity="0.83"><title>Fri 17:00 Asia/Shanghai: 17</title></rect><rect x="858" y="298" width="38" height="31" rx="6" fill="#111111" opacity="0.49"><title>Fri 18:00 Asia/Shanghai: 9</title></rect><rect x="900" y="298" width="38" height="31" rx="6" fill="#111111" opacity="0.61"><title>Fri 19:00 Asia/Shanghai: 12</title></rect><rect x="942" y="298" width="38" height="31" rx="6" fill="#111111" opacity="0.14"><title>Fri 20:00 Asia/Shanghai: 1</title></rect><rect x="984" y="298" width="38" height="31" rx="6" fill="#111111" opacity="0.23"><title>Fri 21:00 Asia/Shanghai: 3</title></rect><rect x="1026" y="298" width="38" height="31" rx="6" fill="#111111" opacity="0.31"><title>Fri 22:00 Asia/Shanghai: 5</title></rect><rect x="1068" y="298" width="38" height="31" rx="6" fill="#111111" opacity="0.31"><title>Fri 23:00 Asia/Shanghai: 5</title></rect><rect x="102" y="334" width="38" height="31" rx="6" fill="#111111" opacity="0.19"><title>Sat 00:00 Asia/Shanghai: 2</title></rect><rect x="144" y="334" width="38" height="31" rx="6" fill="#111111" opacity="0.10"><title>Sat 01:00 Asia/Shanghai: 0</title></rect><rect x="186" y="334" width="38" height="31" rx="6" fill="#111111" opacity="0.10"><title>Sat 02:00 Asia/Shanghai: 0</title></rect><rect x="228" y="334" width="38" height="31" rx="6" fill="#111111" opacity="0.10"><title>Sat 03:00 Asia/Shanghai: 0</title></rect><rect x="270" y="334" width="38" height="31" rx="6" fill="#111111" opacity="0.10"><title>Sat 04:00 Asia/Shanghai: 0</title></rect><rect x="312" y="334" width="38" height="31" rx="6" fill="#111111" opacity="0.10"><title>Sat 05:00 Asia/Shanghai: 0</title></rect><rect x="354" y="334" width="38" height="31" rx="6" fill="#111111" opacity="0.10"><title>Sat 06:00 Asia/Shanghai: 0</title></rect><rect x="396" y="334" width="38" height="31" rx="6" fill="#111111" opacity="0.19"><title>Sat 07:00 Asia/Shanghai: 2</title></rect><rect x="438" y="334" width="38" height="31" rx="6" fill="#111111" opacity="0.27"><title>Sat 08:00 Asia/Shanghai: 4</title></rect><rect x="480" y="334" width="38" height="31" rx="6" fill="#111111" opacity="0.27"><title>Sat 09:00 Asia/Shanghai: 4</title></rect><rect x="522" y="334" width="38" height="31" rx="6" fill="#111111" opacity="0.61"><title>Sat 10:00 Asia/Shanghai: 12</title></rect><rect x="564" y="334" width="38" height="31" rx="6" fill="#111111" opacity="0.40"><title>Sat 11:00 Asia/Shanghai: 7</title></rect><rect x="606" y="334" width="38" height="31" rx="6" fill="#111111" opacity="0.27"><title>Sat 12:00 Asia/Shanghai: 4</title></rect><rect x="648" y="334" width="38" height="31" rx="6" fill="#111111" opacity="0.14"><title>Sat 13:00 Asia/Shanghai: 1</title></rect><rect x="690" y="334" width="38" height="31" rx="6" fill="#111111" opacity="0.14"><title>Sat 14:00 Asia/Shanghai: 1</title></rect><rect x="732" y="334" width="38" height="31" rx="6" fill="#111111" opacity="0.14"><title>Sat 15:00 Asia/Shanghai: 1</title></rect><rect x="774" y="334" width="38" height="31" rx="6" fill="#111111" opacity="0.40"><title>Sat 16:00 Asia/Shanghai: 7</title></rect><rect x="816" y="334" width="38" height="31" rx="6" fill="#111111" opacity="0.19"><title>Sat 17:00 Asia/Shanghai: 2</title></rect><rect x="858" y="334" width="38" height="31" rx="6" fill="#111111" opacity="0.10"><title>Sat 18:00 Asia/Shanghai: 0</title></rect><rect x="900" y="334" width="38" height="31" rx="6" fill="#111111" opacity="0.14"><title>Sat 19:00 Asia/Shanghai: 1</title></rect><rect x="942" y="334" width="38" height="31" rx="6" fill="#111111" opacity="0.10"><title>Sat 20:00 Asia/Shanghai: 0</title></rect><rect x="984" y="334" width="38" height="31" rx="6" fill="#111111" opacity="0.10"><title>Sat 21:00 Asia/Shanghai: 0</title></rect><rect x="1026" y="334" width="38" height="31" rx="6" fill="#111111" opacity="0.14"><title>Sat 22:00 Asia/Shanghai: 1</title></rect><rect x="1068" y="334" width="38" height="31" rx="6" fill="#111111" opacity="0.14"><title>Sat 23:00 Asia/Shanghai: 1</title></rect>
</svg>