<svg xmlns="http://www.w3.org/2000/svg" width="1200" height="280" viewBox="0 0 1200 280" role="img" aria-label="YEAR PULSE">
  <defs>
    <linearGradient id="paper" x1="0" x2="1" y1="0" y2="1">
      <stop offset="0%" stop-color="#ffffff"/>
      <stop offset="100%" stop-color="#f5f3ed"/>
    </linearGradient>
    <filter id="softShadow" x="-20%" y="-20%" width="140%" height="140%">
      <feDropShadow dx="0" dy="10" stdDeviation="14" flood-color="#000000" flood-opacity="0.09"/>
    </filter>
  </defs>
  <rect width="1200" height="280" rx="0" fill="url(#paper)"/>
  <rect x="24" y="24" width="1152" height="232" rx="18" fill="none" stroke="#dad7cf"/>
  <text x="48" y="64" fill="#111111" font-family="Inter, ui-sans-serif, system-ui, -apple-system, BlinkMacSystemFont, Segoe UI, sans-serif" font-size="23" font-weight="650">YEAR PULSE</text>
  <text x="48" y="91" fill="#696969" font-family="Inter, ui-sans-serif, system-ui, -apple-system, BlinkMacSystemFont, Segoe UI, sans-serif" font-size="13" letter-spacing="1.8">ANNUAL COMMIT WAVEFORM</text>
  <polyline points="68,221 68.0,173.0 70.9,173.0 73.8,173.0 76.6,173.0 79.5,173.0 82.4,173.0 85.3,173.0 88.1,173.0 91.0,173.0 93.9,173.0 96.8,173.0 99.6,173.0 102.5,173.0 105.4,173.0 108.3,173.0 111.1,173.0 114.0,173.0 116.9,173.0 119.8,173.0 122.6,151.2 125.5,170.1 128.4,173.0 131.3,161.4 134.1,158.5 137.0,173.0 139.9,168.6 142.8,170.1 145.6,171.5 148.5,173.0 151.4,173.0 154.3,173.0 157.1,173.0 160.0,173.0 162.9,173.0 165.8,173.0 168.6,173.0 171.5,173.0 174.4,173.0 177.3,173.0 180.2,173.0 183.0,173.0 185.9,173.0 188.8,173.0 191.7,173.0 194.5,173.0 197.4,173.0 200.3,173.0 203.2,173.0 206.0,173.0 208.9,173.0 211.8,173.0 214.7,173.0 217.5,173.0 220.4,173.0 223.3,173.0 226.2,173.0 229.0,173.0 231.9,173.0 234.8,173.0 237.7,173.0 240.5,173.0 243.4,173.0 246.3,173.0 249.2,173.0 252.0,173.0 254.9,173.0 257.8,173.0 260.7,173.0 263.5,173.0 266.4,173.0 269.3,173.0 272.2,173.0 275.0,173.0 277.9,173.0 280.8,173.0 283.7,173.0 286.6,173.0 289.4,173.0 292.3,173.0 295.2,173.0 298.1,173.0 300.9,173.0 303.8,173.0 306.7,173.0 309.6,173.0 312.4,173.0 315.3,173.0 318.2,173.0 321.1,173.0 323.9,173.0 326.8,173.0 329.7,173.0 332.6,173.0 335.4,173.0 338.3,173.0 341.2,173.0 344.1,173.0 346.9,173.0 349.8,173.0 352.7,173.0 355.6,173.0 358.4,173.0 361.3,173.0 364.2,173.0 367.1,173.0 369.9,173.0 372.8,173.0 375.7,173.0 378.6,173.0 381.4,173.0 384.3,173.0 387.2,173.0 390.1,173.0 393.0,173.0 395.8,173.0 398.7,173.0 401.6,173.0 404.5,173.0 407.3,173.0 410.2,173.0 413.1,173.0 416.0,173.0 418.8,173.0 421.7,173.0 424.6,173.0 427.5,173.0 430.3,173.0 433.2,173.0 436.1,173.0 439.0,173.0 441.8,173.0 444.7,173.0 447.6,173.0 450.5,173.0 453.3,173.0 456.2,173.0 459.1,173.0 462.0,173.0 464.8,173.0 467.7,173.0 470.6,173.0 473.5,173.0 476.3,173.0 479.2,173.0 482.1,168.6 485.0,173.0 487.8,173.0 490.7,173.0 493.6,165.7 496.5,171.5 499.4,165.7 502.2,149.8 505.1,173.0 508.0,170.1 510.9,170.1 513.7,164.3 516.6,161.4 519.5,173.0 522.4,157.0 525.2,113.5 528.1,146.9 531.0,173.0 533.9,173.0 536.7,173.0 539.6,173.0 542.5,173.0 545.4,173.0 548.2,173.0 551.1,173.0 554.0,173.0 556.9,173.0 559.7,173.0 562.6,173.0 565.5,173.0 568.4,173.0 571.2,173.0 574.1,173.0 577.0,173.0 579.9,173.0 582.7,173.0 585.6,173.0 588.5,173.0 591.4,173.0 594.2,173.0 597.1,173.0 600.0,173.0 602.9,173.0 605.8,173.0 608.6,173.0 611.5,173.0 614.4,173.0 617.3,173.0 620.1,173.0 623.0,173.0 625.9,154.1 628.8,168.6 631.6,173.0 634.5,173.0 637.4,173.0 640.3,173.0 643.1,173.0 646.0,173.0 648.9,167.2 651.8,173.0 654.6,173.0 657.5,173.0 660.4,173.0 663.3,152.7 666.1,173.0 669.0,173.0 671.9,173.0 674.8,173.0 677.6,173.0 680.5,173.0 683.4,173.0 686.3,173.0 689.1,173.0 692.0,173.0 694.9,173.0 697.8,173.0 700.6,173.0 703.5,173.0 706.4,173.0 709.3,173.0 712.2,173.0 715.0,168.6 717.9,173.0 720.8,170.1 723.7,171.5 726.5,171.5 729.4,173.0 732.3,173.0 735.2,171.5 738.0,173.0 740.9,173.0 743.8,173.0 746.7,158.5 749.5,165.7 752.4,123.7 755.3,109.2 758.2,170.1 761.0,162.8 763.9,164.3 766.8,170.1 769.7,173.0 772.5,173.0 775.4,173.0 778.3,164.3 781.2,173.0 784.0,167.2 786.9,157.0 789.8,168.6 792.7,171.5 795.5,171.5 798.4,171.5 801.3,99.0 804.2,170.1 807.0,168.6 809.9,168.6 812.8,168.6 815.7,154.1 818.6,173.0 821.4,173.0 824.3,173.0 827.2,165.7 830.1,161.4 832.9,170.1 835.8,170.1 838.7,173.0 841.6,173.0 844.4,173.0 847.3,173.0 850.2,173.0 853.1,173.0 855.9,173.0 858.8,173.0 861.7,173.0 864.6,173.0 867.4,173.0 870.3,173.0 873.2,170.1 876.1,173.0 878.9,154.1 881.8,173.0 884.7,173.0 887.6,173.0 890.4,159.9 893.3,171.5 896.2,173.0 899.1,170.1 901.9,173.0 904.8,162.8 907.7,173.0 910.6,170.1 913.4,173.0 916.3,173.0 919.2,170.1 922.1,173.0 925.0,173.0 927.8,171.5 930.7,173.0 933.6,173.0 936.5,173.0 939.3,173.0 942.2,173.0 945.1,173.0 948.0,173.0 950.8,173.0 953.7,170.1 956.6,173.0 959.5,173.0 962.3,173.0 965.2,173.0 968.1,173.0 971.0,173.0 973.8,173.0 976.7,170.1 979.6,173.0 982.5,173.0 985.3,173.0 988.2,173.0 991.1,165.7 994.0,173.0 996.8,149.8 999.7,173.0 1002.6,173.0 1005.5,173.0 1008.3,171.5 1011.2,158.5 1014.1,165.7 1017.0,167.2 1019.8,171.5 1022.7,173.0 1025.6,170.1 1028.5,173.0 1031.4,173.0 1034.2,173.0 1037.1,173.0 1040.0,173.0 1042.9,173.0 1045.7,173.0 1048.6,168.6 1051.5,173.0 1054.4,173.0 1057.2,173.0 1060.1,173.0 1063.0,173.0 1065.9,173.0 1068.7,173.0 1071.6,173.0 1074.5,173.0 1077.4,173.0 1080.2,173.0 1083.1,173.0 1086.0,173.0 1088.9,173.0 1091.7,173.0 1094.6,173.0 1097.5,173.0 1100.4,173.0 1103.2,173.0 1106.1,129.5 1109.0,173.0 1111.9,154.1 1114.7,173.0 1117.6,173.0 1120.5,173.0 1123.4,173.0 1126.2,173.0 1129.1,155.6 1132.0,173.0 1132,221" fill="#d8d0bd" opacity="0.35"/>
    <polyline points="68.0,173.0 70.9,173.0 73.8,173.0 76.6,173.0 79.5,173.0 82.4,173.0 85.3,173.0 88.1,173.0 91.0,173.0 93.9,173.0 96.8,173.0 99.6,173.0 102.5,173.0 105.4,173.0 108.3,173.0 111.1,173.0 114.0,173.0 116.9,173.0 119.8,173.0 122.6,151.2 125.5,170.1 128.4,173.0 131.3,161.4 134.1,158.5 137.0,173.0 139.9,168.6 142.8,170.1 145.6,171.5 148.5,173.0 151.4,173.0 154.3,173.0 157.1,173.0 160.0,173.0 162.9,173.0 165.8,173.0 168.6,173.0 171.5,173.0 174.4,173.0 177.3,173.0 180.2,173.0 183.0,173.0 185.9,173.0 188.8,173.0 191.7,173.0 194.5,173.0 197.4,173.0 200.3,173.0 203.2,173.0 206.0,173.0 208.9,173.0 211.8,173.0 214.7,173.0 217.5,173.0 220.4,173.0 223.3,173.0 226.2,173.0 229.0,173.0 231.9,173.0 234.8,173.0 237.7,173.0 240.5,173.0 243.4,173.0 246.3,173.0 249.2,173.0 252.0,173.0 254.9,173.0 257.8,173.0 260.7,173.0 263.5,173.0 266.4,173.0 269.3,173.0 272.2,173.0 275.0,173.0 277.9,173.0 280.8,173.0 283.7,173.0 286.6,173.0 289.4,173.0 292.3,173.0 295.2,173.0 298.1,173.0 300.9,173.0 303.8,173.0 306.7,173.0 309.6,173.0 312.4,173.0 315.3,173.0 318.2,173.0 321.1,173.0 323.9,173.0 326.8,173.0 329.7,173.0 332.6,173.0 335.4,173.0 338.3,173.0 341.2,173.0 344.1,173.0 346.9,173.0 349.8,173.0 352.7,173.0 355.6,173.0 358.4,173.0 361.3,173.0 364.2,173.0 367.1,173.0 369.9,173.0 372.8,173.0 375.7,173.0 378.6,173.0 381.4,173.0 384.3,173.0 387.2,173.0 390.1,173.0 393.0,173.0 395.8,173.0 398.7,173.0 401.6,173.0 404.5,173.0 407.3,173.0 410.2,173.0 413.1,173.0 416.0,173.0 418.8,173.0 421.7,173.0 424.6,173.0 427.5,173.0 430.3,173.0 433.2,173.0 436.1,173.0 439.0,173.0 441.8,173.0 444.7,173.0 447.6,173.0 450.5,173.0 453.3,173.0 456.2,173.0 459.1,173.0 462.0,173.0 464.8,173.0 467.7,173.0 470.6,173.0 473.5,173.0 476.3,173.0 479.2,173.0 482.1,168.6 485.0,173.0 487.8,173.0 490.7,173.0 493.6,165.7 496.5,171.5 499.4,165.7 502.2,149.8 505.1,173.0 508.0,170.1 510.9,170.1 513.7,164.3 516.6,161.4 519.5,173.0 522.4,157.0 525.2,113.5 528.1,146.9 531.0,173.0 533.9,173.0 536.7,173.0 539.6,173.0 542.5,173.0 545.4,173.0 548.2,173.0 551.1,173.0 554.0,173.0 556.9,173.0 559.7,173.0 562.6,173.0 565.5,173.0 568.4,173.0 571.2,173.0 574.1,173.0 577.0,173.0 579.9,173.0 582.7,173.0 585.6,173.0 588.5,173.0 591.4,173.0 594.2,173.0 597.1,173.0 600.0,173.0 602.9,173.0 605.8,173.0 608.6,173.0 611.5,173.0 614.4,173.0 617.3,173.0 620.1,173.0 623.0,173.0 625.9,154.1 628.8,168.6 631.6,173.0 634.5,173.0 637.4,173.0 640.3,173.0 643.1,173.0 646.0,173.0 648.9,167.2 651.8,173.0 654.6,173.0 657.5,173.0 660.4,173.0 663.3,152.7 666.1,173.0 669.0,173.0 671.9,173.0 674.8,173.0 677.6,173.0 680.5,173.0 683.4,173.0 686.3,173.0 689.1,173.0 692.0,173.0 694.9,173.0 697.8,173.0 700.6,173.0 703.5,173.0 706.4,173.0 709.3,173.0 712.2,173.0 715.0,168.6 717.9,173.0 720.8,170.1 723.7,171.5 726.5,171.5 729.4,173.0 732.3,173.0 735.2,171.5 738.0,173.0 740.9,173.0 743.8,173.0 746.7,158.5 749.5,165.7 752.4,123.7 755.3,109.2 758.2,170.1 761.0,162.8 763.9,164.3 766.8,170.1 769.7,173.0 772.5,173.0 775.4,173.0 778.3,164.3 781.2,173.0 784.0,167.2 786.9,157.0 789.8,168.6 792.7,171.5 795.5,171.5 798.4,171.5 801.3,99.0 804.2,170.1 807.0,168.6 809.9,168.6 812.8,168.6 815.7,154.1 818.6,173.0 821.4,173.0 824.3,173.0 827.2,165.7 830.1,161.4 832.9,170.1 835.8,170.1 838.7,173.0 841.6,173.0 844.4,173.0 847.3,173.0 850.2,173.0 853.1,173.0 855.9,173.0 858.8,173.0 861.7,173.0 864.6,173.0 867.4,173.0 870.3,173.0 873.2,170.1 876.1,173.0 878.9,154.1 881.8,173.0 884.7,173.0 887.6,173.0 890.4,159.9 893.3,171.5 896.2,173.0 899.1,170.1 901.9,173.0 904.8,162.8 907.7,173.0 910.6,170.1 913.4,173.0 916.3,173.0 919.2,170.1 922.1,173.0 925.0,173.0 927.8,171.5 930.7,173.0 933.6,173.0 936.5,173.0 939.3,173.0 942.2,173.0 945.1,173.0 948.0,173.0 950.8,173.0 953.7,170.1 956.6,173.0 959.5,173.0 962.3,173.0 965.2,173.0 968.1,173.0 971.0,173.0 973.8,173.0 976.7,170.1 979.6,173.0 982.5,173.0 985.3,173.0 988.2,173.0 991.1,165.7 994.0,173.0 996.8,149.8 999.7,173.0 1002.6,173.0 1005.5,173.0 1008.3,171.5 1011.2,158.5 1014.1,165.7 1017.0,167.2 1019.8,171.5 1022.7,173.0 1025.6,170.1 1028.5,173.0 1031.4,173.0 1034.2,173.0 1037.1,173.0 1040.0,173.0 1042.9,173.0 1045.7,173.0 1048.6,168.6 1051.5,173.0 1054.4,173.0 1057.2,173.0 1060.1,173.0 1063.0,173.0 1065.9,173.0 1068.7,173.0 1071.6,173.0 1074.5,173.0 1077.4,173.0 1080.2,173.0 1083.1,173.0 1086.0,173.0 1088.9,173.0 1091.7,173.0 1094.6,173.0 1097.5,173.0 1100.4,173.0 1103.2,173.0 1106.1,129.5 1109.0,173.0 1111.9,154.1 1114.7,173.0 1117.6,173.0 1120.5,173.0 1123.4,173.0 1126.2,173.0 1129.1,155.6 1132.0,173.0" fill="none" stroke="#111111" stroke-width="2.4" stroke-linejoin="round"/>
    <line x1="68" y1="173" x2="1132" y2="173" stroke="#dad7cf" stroke-dasharray="4 8"/>
    <line x1="96.8" y1="111" x2="96.8" y2="226" stroke="#dad7cf" opacity="0.5"/><text x="96.8" y="242" fill="#696969" font-size="11" font-family="Inter, ui-sans-serif">Jun</text><line x1="183.0" y1="111" x2="183.0" y2="226" stroke="#dad7cf" opacity="0.5"/><text x="183.0" y="242" fill="#696969" font-size="11" font-family="Inter, ui-sans-serif">Jul</text><line x1="272.2" y1="111" x2="272.2" y2="226" stroke="#dad7cf" opacity="0.5"/><text x="272.2" y="242" fill="#696969" font-size="11" font-family="Inter, ui-sans-serif">Aug</text><line x1="361.3" y1="111" x2="361.3" y2="226" stroke="#dad7cf" opacity="0.5"/><text x="361.3" y="242" fill="#696969" font-size="11" font-family="Inter, ui-sans-serif">Sep</text><line x1="447.6" y1="111" x2="447.6" y2="226" stroke="#dad7cf" opacity="0.5"/><text x="447.6" y="242" fill="#696969" font-size="11" font-family="Inter, ui-sans-serif">Oct</text><line x1="536.7" y1="111" x2="536.7" y2="226" stroke="#dad7cf" opacity="0.5"/><text x="536.7" y="242" fill="#696969" font-size="11" font-family="Inter, ui-sans-serif">Nov</text><line x1="623.0" y1="111" x2="623.0" y2="226" stroke="#dad7cf" opacity="0.5"/><text x="623.0" y="242" fill="#696969" font-size="11" font-family="Inter, ui-sans-serif">Dec</text><line x1="712.2" y1="111" x2="712.2" y2="226" stroke="#dad7cf" opacity="0.5"/><text x="712.2" y="242" fill="#696969" font-size="11" font-family="Inter, ui-sans-serif">Jan</text><line x1="801.3" y1="111" x2="801.3" y2="226" stroke="#dad7cf" opacity="0.5"/><text x="801.3" y="242" fill="#696969" font-size="11" font-family="Inter, ui-sans-serif">Feb</text><line x1="881.8" y1="111" x2="881.8" y2="226" stroke="#dad7cf" opacity="0.5"/><text x="881.8" y="242" fill="#696969" font-size="11" font-family="Inter, ui-sans-serif">Mar</text><line x1="971.0" y1="111" x2="971.0" y2="226" stroke="#dad7cf" opacity="0.5"/><text x="971.0" y="242" fill="#696969" font-size="11" font-family="Inter, ui-sans-serif">Apr</text><line x1="1057.2" y1="111" x2="1057.2" y2="226" stroke="#dad7cf" opacity="0.5"/><text x="1057.2" y="242" fill="#696969" font-size="11" font-family="Inter, ui-sans-serif">May</text>
</svg>